<?xml version="1.0" encoding="UTF-8" standalone="no"?>
<!-- Created with Inkscape (http://www.inkscape.org/) -->
<svg xmlns:dc="http://purl.org/dc/elements/1.1/" xmlns:cc="http://creativecommons.org/ns#" xmlns:rdf="http://www.w3.org/1999/02/22-rdf-syntax-ns#" xmlns:svg="http://www.w3.org/2000/svg" xmlns="http://www.w3.org/2000/svg" xmlns:sodipodi="http://sodipodi.sourceforge.net/DTD/sodipodi-0.dtd" xmlns:inkscape="http://www.inkscape.org/namespaces/inkscape" id="svg6977" version="1.1" viewBox="0 0 130.14467 104.51" height="104.51mm" width="130.14467mm" inkscape:version="0.92.2 (5c3e80d, 2017-08-06)" sodipodi:docname="laptop.svg">
  <sodipodi:namedview inkscape:window-maximized="1" inkscape:window-y="1072" inkscape:window-x="-8" inkscape:window-height="1017" inkscape:window-width="1920" inkscape:snap-midpoints="true" inkscape:object-paths="true" showgrid="false" inkscape:current-layer="layer1" inkscape:document-units="mm" inkscape:cy="194.33754" inkscape:cx="188.91046" inkscape:zoom="1.4" inkscape:pageshadow="2" inkscape:pageopacity="0.0" borderopacity="1.0" bordercolor="#666666" pagecolor="#ffffff" id="base" fit-margin-top="0" fit-margin-left="0" fit-margin-right="0" fit-margin-bottom="0"/>
  <defs id="defs6971"/>
  <metadata id="metadata6974">
    <rdf:RDF>
      <cc:Work rdf:about="">
        <dc:format>image/svg+xml</dc:format>
        <dc:type rdf:resource="http://purl.org/dc/dcmitype/StillImage"/>
        <dc:title/>
      </cc:Work>
    </rdf:RDF>
  </metadata>
  <g id="layer1" inkscape:groupmode="layer" inkscape:label="Layer 1" transform="translate(-37.40999,-165.20976)">
    <g id="g7820" style="stroke:#979797;stroke-width:1.83334529;stroke-miterlimit:4;stroke-dasharray:none;stroke-opacity:1" transform="matrix(1.1033809,0,0,1.0785642,-8.2592262,-23.933837)">
      <path inkscape:connector-curvature="0" style="fill:none;fill-opacity:1;stroke:#979797;stroke-width:1.83334529;stroke-linecap:round;stroke-linejoin:round;stroke-miterlimit:4;stroke-dasharray:none;stroke-dashoffset:0;stroke-opacity:1" d="m 59.654757,176.28277 c -1.308743,0 -2.362647,1.05391 -2.362647,2.36265 v 49.13654 c 0,1.30874 1.053904,2.36264 2.362647,2.36264 h 81.264803 c 1.30874,0 2.36213,-1.0539 2.36213,-2.36264 v -49.13654 c 0,-1.30874 -1.05339,-2.36265 -2.36213,-2.36265 z m 2.527035,3.86303 h 76.210738 c 0.51823,0 0.93534,0.41762 0.93534,0.93586 v 42.63801 c 0,0.51824 -0.41711,0.93586 -0.93534,0.93586 H 62.181792 c -0.518236,0 -0.93586,-0.41762 -0.93586,-0.93586 v -42.63801 c 0,-0.51824 0.417624,-0.93586 0.93586,-0.93586 z" id="rect7588" sodipodi:nodetypes="ssssssssssssssssss"/>
      <g style="stroke:#979797;stroke-width:1.83334529;stroke-miterlimit:4;stroke-dasharray:none;stroke-opacity:1" id="g7804">
        <path style="fill:none;fill-opacity:1;stroke:#979797;stroke-width:6.92917919;stroke-linecap:round;stroke-linejoin:round;stroke-miterlimit:4;stroke-dasharray:none;stroke-dashoffset:0;stroke-opacity:1" d="m 220.9375,870.625 c -1.09026,0.33235 -2.08815,0.75746 -2.9375,1.25195 0.8492,-0.49455 1.84739,-0.91954 2.9375,-1.25195 z M 218,871.87695 c -0.42467,0.24725 -0.8133,0.5122 -1.15625,0.79102 0.34289,-0.27885 0.73165,-0.54374 1.15625,-0.79102 z m -1.15625,0.79102 c -0.51443,0.41823 -0.92849,0.86932 -1.21875,1.3418 0.29023,-0.47249 0.70441,-0.92353 1.21875,-1.3418 z m 326.39844,0.55273 c 0.14724,0.14628 0.28393,0.29499 0.40625,0.44727 -0.12261,-0.15262 -0.25861,-0.30068 -0.40625,-0.44727 z m 0.40625,0.44727 c 0.24464,0.30455 0.438,0.62123 0.57226,0.94531 -0.13426,-0.32408 -0.32761,-0.64076 -0.57226,-0.94531 z m -304.84375,8.92383 c -0.40878,0.13011 -0.78029,0.29697 -1.09375,0.49023 0.31356,-0.19343 0.68487,-0.35995 1.09375,-0.49023 z m 301.95703,52.82226 c 0.16981,0.48347 0.0847,0.93244 -0.20117,1.30469 0.28586,-0.37222 0.37098,-0.82122 0.20117,-1.30469 z m -322.14453,1.19727 c 0.0947,0.1247 0.20988,0.2397 0.34765,0.3457 -0.13728,-0.10568 -0.25313,-0.22145 -0.34765,-0.3457 z m 321.59179,0.45312 c -0.41365,0.31646 -1.00937,0.54182 -1.73437,0.63477 0.72428,-0.0928 1.32072,-0.31884 1.73437,-0.63477 z m -109.04882,12.60938 c 1.47868,4.7e-4 2.85653,0.3717 3.89257,0.97461 -1.03637,-0.60322 -2.41389,-0.97414 -3.89257,-0.97461 z m -108.38868,0.9375 c -0.26102,0.15091 -0.50031,0.3163 -0.71484,0.49414 0.2142,-0.1775 0.45433,-0.34348 0.71484,-0.49414 z m -1.27929,1.06055 c -0.24047,0.29996 -0.41597,0.62257 -0.51367,0.96093 0.0977,-0.33836 0.27326,-0.66095 0.51367,-0.96093 z m 115.21289,0.66601 c 0.0966,0.21814 0.16011,0.44385 0.1875,0.67578 -0.0274,-0.23193 -0.0908,-0.45761 -0.1875,-0.67578 z m 4.67187,38.90039 c -0.008,0.26571 -0.0562,0.52399 -0.14062,0.77149 0.0845,-0.24748 0.13217,-0.50579 0.14062,-0.77149 z m -280.96484,13.71682 c -0.10936,0.2595 -0.19679,0.516 -0.26953,0.7695 0.0739,-0.2538 0.16019,-0.51 0.26953,-0.7695 z m 437.86133,0.125 c 0.11025,0.2661 0.19645,0.529 0.26953,0.789 -0.0725,-0.2604 -0.159,-0.5222 -0.26953,-0.789 z m -438.21875,1.0156 c -0.0274,0.1238 -0.0552,0.2471 -0.0742,0.3691 0.0197,-0.1221 0.0461,-0.2453 0.0742,-0.3691 z m 438.54687,0.016 c 0.0391,0.1637 0.0691,0.3257 0.0937,0.4864 -0.0241,-0.1605 -0.0552,-0.323 -0.0937,-0.4864 z m -438.67383,0.8067 c -0.005,0.071 -0.009,0.1409 -0.0117,0.2109 0.003,-0.07 0.006,-0.1402 0.0117,-0.2109 z m 438.8125,0.029 c 0.0111,0.1233 0.0131,0.244 0.0156,0.3652 -0.002,-0.121 -0.005,-0.2422 -0.0156,-0.3652 z m -438.83203,0.7226 -0.008,11.4785 h 0.0156 c -0.12847,3.6128 3.47552,6.2954 9.14843,6.2969 l 420.50586,0.1172 c 5.64843,0 9.26183,-2.6587 9.18555,-6.25 h 0.0137 l -0.004,-11.6426 h -0.006 c -0.004,0.083 -0.0194,0.1625 -0.0273,0.2442 -0.0125,0.1286 -0.0207,0.259 -0.043,0.3847 -0.0221,0.1243 -0.0564,0.244 -0.0879,0.3653 -0.0277,0.107 -0.055,0.2138 -0.0898,0.3183 -0.0389,0.1166 -0.0851,0.2305 -0.13281,0.3438 -0.0405,0.096 -0.0841,0.1912 -0.13086,0.2851 -0.0569,0.1142 -0.11563,0.2275 -0.18164,0.3379 -0.0589,0.099 -0.12536,0.1935 -0.19141,0.2891 -0.0677,0.098 -0.13197,0.1965 -0.20703,0.291 -0.13758,0.1734 -0.28561,0.3427 -0.44727,0.5039 -6.6e-4,7e-4 -10e-4,0 -0.002,0 -0.0723,0.072 -0.15545,0.1376 -0.23242,0.207 -0.11261,0.1016 -0.22521,0.2029 -0.34766,0.2988 -0.0907,0.071 -0.18726,0.1373 -0.2832,0.2051 -0.1261,0.089 -0.25557,0.1763 -0.39063,0.2598 -0.0961,0.059 -0.19244,0.1175 -0.29296,0.1738 -0.15975,0.089 -0.32734,0.1741 -0.49805,0.2558 -0.0905,0.043 -0.17794,0.088 -0.27149,0.129 -0.25044,0.1099 -0.50975,0.2135 -0.78125,0.3066 -0.0113,0 -0.0218,0.01 -0.0332,0.012 -0.078,0.026 -0.1625,0.047 -0.24219,0.072 -0.22295,0.07 -0.44976,0.1349 -0.68554,0.1933 -0.11533,0.029 -0.23521,0.053 -0.35352,0.078 -0.2037,0.044 -0.41069,0.085 -0.62305,0.1211 -0.14162,0.024 -0.28432,0.047 -0.42968,0.066 -0.21267,0.029 -0.42991,0.052 -0.65039,0.072 -0.14166,0.013 -0.281,0.028 -0.42579,0.037 -0.36028,0.023 -0.72837,0.039 -1.10742,0.039 l -420.50586,-0.1172 c -0.37288,-10e-5 -0.73528,-0.014 -1.08984,-0.037 -0.14934,-0.01 -0.29347,-0.026 -0.43945,-0.039 -0.23016,-0.021 -0.45619,-0.045 -0.67774,-0.076 -0.12244,-0.017 -0.24352,-0.035 -0.36328,-0.055 -0.22477,-0.037 -0.44316,-0.08 -0.6582,-0.127 -0.11949,-0.026 -0.241,-0.049 -0.35742,-0.078 -0.24261,-0.06 -0.47621,-0.1286 -0.70508,-0.2012 -0.15028,-0.048 -0.29524,-0.1 -0.43946,-0.1523 -0.18966,-0.069 -0.37778,-0.1409 -0.55664,-0.2188 -0.12869,-0.056 -0.25006,-0.1156 -0.37304,-0.1757 -0.1223,-0.06 -0.24287,-0.1215 -0.35938,-0.1856 -0.12961,-0.071 -0.25657,-0.1427 -0.3789,-0.2187 -0.10747,-0.067 -0.20884,-0.1383 -0.31055,-0.209 -0.11908,-0.083 -0.23855,-0.1646 -0.34961,-0.252 -0.0479,-0.038 -0.0903,-0.078 -0.13672,-0.1172 -0.29006,-0.2412 -0.55232,-0.4977 -0.78125,-0.7715 -0.0132,-0.016 -0.028,-0.031 -0.041,-0.047 -0.1151,-0.1408 -0.21799,-0.2871 -0.31641,-0.4356 -0.0249,-0.038 -0.0504,-0.075 -0.0742,-0.1133 -0.0942,-0.1504 -0.1809,-0.3033 -0.25781,-0.4609 -0.0144,-0.03 -0.0272,-0.06 -0.041,-0.09 -0.24833,-0.536 -0.39747,-1.1098 -0.4375,-1.7149 z" transform="scale(0.26458333)" id="rect7588-9-5" inkscape:connector-curvature="0"/>
      </g>
      <path inkscape:connector-curvature="0" style="fill:none;fill-opacity:1;stroke:#979797;stroke-width:1.83334529;stroke-linecap:round;stroke-linejoin:round;stroke-miterlimit:4;stroke-dasharray:none;stroke-dashoffset:0;stroke-opacity:1" d="m 59.866967,230.14461 c -1.308844,-5e-4 -2.592681,0.54466 -2.881659,1.23057 0,0 -14.543138,34.51943 -14.543138,34.51943 -0.520379,1.23517 0.497328,2.24584 2.289654,2.24633 0,0 111.258506,0.0308 111.258506,0.0308 1.79123,5e-4 2.81443,-1.00929 2.30274,-2.24436 0,0 -14.30157,-34.51951 -14.30157,-34.51951 -0.2842,-0.68597 -1.56324,-1.23197 -2.8715,-1.23247 0,0 -81.253033,-0.0308 -81.253033,-0.0308 0,0 0,0 0,0 m 3.850612,3.29302 c 0,0 73.530621,0.0272 73.530621,0.0272 0.49898,1.8e-4 0.97558,0.21428 1.06941,0.48141 0,0 4.75916,13.54888 4.75916,13.54888 0.11981,0.34111 -0.23998,0.61717 -0.80776,0.61698 0,0 -83.673543,-0.0277 -83.673543,-0.0277 -0.568045,-1.9e-4 -0.92613,-0.27656 -0.803947,-0.61767 0,0 4.852965,-13.54843 4.852965,-13.54843 0.09568,-0.26712 0.573921,-0.48091 1.073094,-0.48072 0,0 0,0 0,0 m 22.715026,17.82105 c 0,0 27.645015,0.009 27.645015,0.009 0.78247,2.5e-4 1.45907,0.39306 1.51705,0.88399 0,0 1.18178,10.00661 1.18178,10.00661 0.0682,0.57748 -0.5674,1.04555 -1.42519,1.0453 0,0 -30.306163,-0.009 -30.306163,-0.009 -0.857932,-2.5e-4 -1.489185,-0.46873 -1.415474,-1.04621 0,0 1.277272,-10.00672 1.277272,-10.00672 0.06266,-0.49093 0.743118,-0.88334 1.52571,-0.88309 0,0 0,0 0,0" id="rect7588-9"/>
    </g>
  </g>
</svg>